<?xml version="1.0" standalone="no"?>
<!DOCTYPE svg PUBLIC "-//W3C//DTD SVG 20010904//EN"
 "http://www.w3.org/TR/2001/REC-SVG-20010904/DTD/svg10.dtd">
<svg version="1.0" xmlns="http://www.w3.org/2000/svg"
 width="308.000000pt" height="365.000000pt" viewBox="0 0 308.000000 365.000000"
 preserveAspectRatio="xMidYMid meet">

<g transform="translate(0.000000,365.000000) scale(0.100000,-0.100000)"
fill="#000000" stroke="none">
<path d="M1162 3621 c-99 -35 -173 -118 -197 -223 l-11 -53 -190 -6 c-210 -6
-246 -15 -323 -74 -59 -46 -117 -129 -132 -188 -11 -41 -17 -48 -47 -56 -83
-23 -177 -107 -215 -190 -28 -63 -30 -197 -4 -261 39 -95 143 -186 241 -211
55 -14 52 -3 66 -214 6 -88 20 -277 30 -420 11 -143 35 -494 55 -780 19 -286
40 -547 46 -580 15 -81 52 -147 124 -220 67 -69 141 -110 228 -125 38 -8 295
-10 765 -8 l707 3 55 27 c128 64 227 184 254 309 6 27 99 1190 111 1379 3 58
15 210 25 338 11 129 20 244 20 256 0 19 10 25 61 40 49 13 73 28 119 71 31
30 70 79 86 108 27 48 29 60 29 152 0 90 -3 106 -28 158 -34 68 -113 138 -187
164 -44 16 -50 21 -55 54 -9 52 -78 152 -133 192 -89 64 -117 71 -325 75
l-187 4 -6 26 c-25 118 -82 194 -182 244 -46 23 -55 23 -397 25 -319 3 -355 1
-403 -16z m733 -216 c14 -13 25 -33 25 -45 0 -20 -4 -20 -375 -20 -206 0 -375
2 -375 5 0 15 32 65 47 74 11 7 139 11 336 11 l318 0 24 -25z m614 -293 c35
-17 79 -67 69 -77 -3 -3 -467 -8 -1032 -12 -1109 -6 -1048 -9 -1010 46 9 12
30 31 48 42 30 18 63 19 961 19 866 0 932 -1 964 -18z m328 -331 c46 -69 19
-165 -57 -203 -33 -17 -113 -18 -1247 -18 l-1211 0 -32 26 c-58 49 -75 115
-45 174 33 65 -67 60 1314 58 l1255 -3 23 -34z m-2047 -1323 c0 -578 4 -906
10 -930 6 -20 24 -48 41 -62 41 -35 83 -34 120 3 l29 29 0 921 0 920 43 6 c24
4 55 5 68 3 l24 -3 5 -920 c4 -719 8 -925 18 -942 30 -53 107 -59 153 -14 l29
29 1 884 c0 486 3 901 7 922 9 49 27 57 35 16 6 -25 11 -30 36 -30 22 0 32 -6
37 -22 3 -11 5 -397 4 -857 -2 -460 -2 -853 -1 -874 3 -96 137 -136 183 -54
10 17 14 223 18 942 4 809 7 920 20 920 8 0 17 -11 19 -25 4 -29 17 -40 49
-40 l22 0 0 -882 c0 -857 1 -884 20 -915 36 -59 132 -62 172 -4 8 11 18 18 21
14 4 -3 14 10 22 30 13 31 15 115 14 569 0 307 -4 525 -9 513 -5 -11 -10 -15
-11 -10 -1 6 -5 -21 -9 -60 -4 -38 -7 113 -8 337 -2 402 -2 406 18 401 12 -3
20 0 20 7 0 8 5 7 14 -3 9 -8 26 -12 40 -10 17 4 27 -1 35 -14 13 -26 6 -296
-9 -324 -7 -11 -9 -32 -6 -45 7 -25 -8 -34 -17 -11 -3 6 -6 -4 -7 -23 -1 -28
-3 -31 -9 -15 -18 46 -23 -73 -29 -675 -7 -606 -8 -626 -28 -660 -64 -110
-199 -104 -245 10 -10 25 -18 39 -18 32 -1 -7 -5 -11 -9 -8 -12 7 -26 -5 -51
-47 -13 -21 -37 -45 -54 -54 -36 -18 -117 -26 -117 -11 0 5 -7 2 -16 -6 -8 -9
-20 -16 -25 -16 -5 0 -9 -7 -9 -16 0 -8 -4 -13 -9 -9 -5 3 -13 0 -16 -5 -4 -6
-18 -16 -32 -21 -17 -6 -23 -14 -19 -25 5 -14 -22 -15 -247 -12 l-252 3 -41
27 c-23 15 -51 42 -63 61 -46 75 -52 112 -66 407 -8 157 -14 297 -15 313 0 16
-5 27 -14 27 -8 0 -16 6 -19 13 -2 6 -3 1 -1 -13 2 -14 5 -86 7 -160 5 -132 5
-133 -4 -35 -8 93 -31 399 -79 1050 -11 143 -20 265 -20 270 0 6 18 10 40 8
25 -1 40 3 41 10 1 7 2 17 4 22 1 6 3 16 3 23 2 8 23 12 72 12 l70 0 0 -892z
m1639 765 c-2 -100 -26 -386 -29 -338 -1 37 -4 44 -9 26 -4 -14 -13 -27 -20
-29 -8 -3 -11 0 -7 7 4 7 2 9 -8 5 -10 -4 -16 3 -19 23 -2 15 -5 -59 -6 -165
0 -126 -4 -191 -11 -187 -11 7 -14 687 -3 698 3 4 30 7 60 7 l53 0 -1 -47z
m103 -93 c-7 -84 -9 -93 -11 -44 -1 67 12 201 16 169 2 -11 -1 -67 -5 -125z
m-15 -207 c-2 -16 -4 -3 -4 27 0 30 2 43 4 28 2 -16 2 -40 0 -55z m-10 -185
c-2 -13 -4 -3 -4 22 0 25 2 35 4 23 2 -13 2 -33 0 -45z m-10 -120 c-2 -13 -4
-3 -4 22 0 25 2 35 4 23 2 -13 2 -33 0 -45z m-10 -130 c-2 -13 -4 -5 -4 17 -1
22 1 32 4 23 2 -10 2 -28 0 -40z m-10 -125 c-3 -10 -5 -2 -5 17 0 19 2 27 5
18 2 -10 2 -26 0 -35z m-1800 -625 c-2 -13 -4 -3 -4 22 0 25 2 35 4 23 2 -13
2 -33 0 -45z m10 -160 c-3 -8 -6 -5 -6 6 -1 11 2 17 5 13 3 -3 4 -12 1 -19z
m1509 -138 c24 0 49 9 73 26 l36 27 -32 -34 c-42 -43 -98 -47 -137 -10 -14 14
-26 29 -26 34 0 6 11 -2 25 -17 18 -19 34 -26 61 -26z"/>
<path d="M2530 3050 c-12 -7 -10 -9 7 -7 12 0 19 5 17 9 -6 10 -6 10 -24 -2z"/>
<path d="M2785 2800 c-3 -6 -11 -8 -16 -4 -5 3 -8 0 -7 -8 2 -8 -8 -14 -24
-16 -16 -2 -28 -8 -28 -13 0 -5 -6 -9 -12 -7 -17 4 -109 -32 -125 -48 -7 -6
-9 -15 -5 -18 3 -4 -1 -4 -9 -1 -8 3 -29 -1 -45 -10 -16 -8 -34 -15 -41 -15
-7 0 -17 -8 -22 -17 -6 -10 -11 -15 -11 -11 0 4 -19 -2 -42 -12 -24 -11 -53
-20 -66 -20 -13 0 -21 -4 -17 -9 3 -5 -5 -12 -17 -14 -13 -2 82 -5 210 -6 260
-1 287 4 322 61 25 41 26 93 2 138 -20 37 -36 47 -47 30z"/>
<path d="M2037 1883 c3 -7 6 -13 8 -13 2 0 5 6 8 13 3 8 -1 14 -8 14 -7 0 -11
-6 -8 -14z"/>
<path d="M670 1195 c0 -5 5 -17 10 -25 5 -8 10 -10 10 -5 0 6 -5 17 -10 25 -5
8 -10 11 -10 5z"/>
</g>
</svg>
